<svg xmlns="http://www.w3.org/2000/svg" width="400" height="190" viewBox="0 0 400 190"><g style="display:inline"><path d="m24.822-2.016-.111 13.752c-9.57.041-19.14.084-28.711.123V153.5c9.57.04 19.14.084 28.71.125l.128 16.215h184.601v-49.52H24.838l-.127 16.223-11.592.074V28.742l11.592.074c.042 5.568.083 11.136.127 16.704h49.445c.043-5.56.083-11.12.125-16.68h12.553v16.68h49.52V-4H86.96v15.84H74.32V-4H24.837l-.016 1.984zM149.12-2v47.52H334V29.44h11.44v107.44H334v-16.56h-49.76v16.582l-12.64.069v-16.65h-49.76v49.519h49.76V154h12.64v15.84H334V154h28.56V12.32H334V-4H149.12v2zM24.801 60.16v47.52h49.52V58.16H24.8v2zm62.16 0v47.52H271.6V58.16H86.96v2zm197.28 0v47.52H334V58.16h-49.76v2z" style="fill:#fff;fill-opacity:1" transform="matrix(1.09122 0 0 1.09122 4.365 4.365)"/></g><g style="display:inline"><path d="M288.24 82.92V62.16H330v41.52h-41.76zM28.8 82.92V62.16h41.52v41.52H28.8Z" style="fill:#e47d24" transform="matrix(1.09122 0 0 1.09122 4.365 4.365)"/><path d="M288.24 153.483v-12.358l-10.38-.065-10.38-.065 10.38-.058 10.38-.057v-16.56H330v16.56h19.44V25.44H330v16.08H153.12V0H330v25.195l9.78.062 9.78.063V141l-9.78.063-9.78.062v24.715h-41.76zM28.743 157.74l-.063-8.1-14.34-.062L0 149.516V15.844l14.34-.062 14.34-.062.063-7.86.064-7.86H70.32v15.84h20.64v9H70.44l-.063 8.34-.063 8.34H28.806l-.063-8.34-.063-8.34-9.78-.063-9.78-.062v115.93l9.78-.062 9.78-.063.063-8.1.063-8.1H205.44v41.52H28.806Z" style="fill:#6cb843" transform="matrix(1.09122 0 0 1.09122 4.365 4.365)"/><path d="M90.96 20.76V0h41.52v41.52H90.96ZM90.96 82.92V62.16H267.6v41.52H90.96ZM330 145.563v-4.438l9.78-.062 9.78-.063V25.32l-9.78-.063-9.78-.062V16.32h28.56V150H330ZM225.84 145.08v-20.76h41.76v16.8h20.64V150H267.6v15.84h-41.76z" style="fill:#223e98" transform="matrix(1.09122 0 0 1.09122 4.365 4.365)"/></g></svg>
